<?xml version="1.0" encoding="UTF-8"?> <svg xmlns="http://www.w3.org/2000/svg" width="55" height="60" viewBox="0 0 55 60" fill="none"> <g clip-path="url(#clip0_3501_958)"> <path d="M8.07288 10.5475C8.68318 11.0619 9.29638 11.5749 9.90595 12.09C11.4972 13.4343 13.1038 14.7604 14.7503 16.0378C16.4273 17.34 18.1385 18.5935 19.9702 19.6741C21.5464 20.6037 23.1872 21.3843 24.9852 21.7977C27.2287 22.3136 29.4056 22.0771 31.5411 21.2762C33.486 20.5477 35.2472 19.4872 36.9508 18.3212C39.0592 16.8772 41.0489 15.2794 43.0137 13.6482C44.9103 12.0736 46.7704 10.4568 48.6319 8.84144C48.657 8.81742 48.6903 8.80393 48.725 8.80374C48.2679 9.33271 47.8101 9.86144 47.3515 10.3899C45.9693 11.9848 44.5915 13.587 43.2544 15.2155C42.08 16.6477 40.9283 18.0981 39.8485 19.6033C38.5728 21.3787 37.4041 23.2132 36.5178 25.2198C35.0368 28.5758 35.0951 31.909 36.6287 35.2399C37.4509 37.0284 38.4912 38.6862 39.6268 40.2866C41.3162 42.6648 43.1626 44.9194 45.038 47.1509C45.677 47.9105 46.3146 48.6715 46.9216 49.4703C46.7483 49.329 46.5735 49.1905 46.4038 49.0455C44.353 47.294 42.2854 45.5621 40.1517 43.9122C38.0887 42.3156 35.9807 40.7844 33.6512 39.5912C31.993 38.7422 30.263 38.1194 28.3896 37.975C26.4726 37.8262 24.6545 38.2253 22.8935 38.9548C20.9959 39.7452 19.2631 40.8253 17.5872 42.003C15.1874 43.6904 12.9188 45.5467 10.6837 47.4496C9.23701 48.6836 7.8005 49.9278 6.35817 51.1677C6.33331 51.1927 6.29967 51.207 6.26438 51.2075C6.53312 50.8951 6.79894 50.5797 7.0706 50.2702C8.6976 48.4101 10.3093 46.5347 11.8766 44.6149C13.7656 42.3005 15.608 39.9496 17.1315 37.3743C18.1207 35.7047 18.9397 33.9635 19.3343 32.0436C19.8279 29.6429 19.4466 27.3466 18.4979 25.1164C17.7521 23.3535 16.7518 21.7372 15.6651 20.171C14.2052 18.066 12.6101 16.0655 10.9715 14.0999C10.0148 12.9514 9.05009 11.8109 8.0905 10.6668C8.06787 10.6375 8.04695 10.6068 8.02782 10.5751L8.07288 10.5475Z" fill="#FC2B2B"></path> </g> <defs> <clipPath id="clip0_3501_958"> <rect width="55" height="60" fill="white"></rect> </clipPath> </defs> </svg> 