<?xml version="1.0" encoding="UTF-8"?> <svg xmlns="http://www.w3.org/2000/svg" width="152" height="44" viewBox="0 0 152 44" fill="none"> <path fill-rule="evenodd" clip-rule="evenodd" d="M49.2626 10.4277H43.7018L38.2674 41.477H43.8232L49.2626 10.4277ZM55.3548 33.1144H69.5226C70.0511 31.7877 70.2846 30.3609 70.2068 28.9339C70.129 27.5069 69.7418 26.1143 69.0722 24.8536C68.3204 23.5082 67.2069 22.4029 65.8592 21.6642C64.4155 20.8906 62.7993 20.5002 61.1636 20.5299C59.1779 20.5218 57.2253 21.0411 55.5033 22.0352C53.7814 23.0294 52.3512 24.4631 51.3574 26.1914C50.3448 27.9216 49.8201 29.8964 49.8394 31.9038C49.8065 33.7384 50.2699 35.5476 51.1803 37.138C52.0687 38.6567 53.367 39.8913 54.9247 40.6987C56.6111 41.5739 58.4867 42.0161 60.3843 41.9856C63.3975 42.0407 66.3313 41.0125 68.6573 39.0862L66.6333 35.3169C64.951 36.5286 62.9395 37.1926 60.8701 37.2194C59.5466 37.2819 58.2385 36.9125 57.1409 36.1664C56.1696 35.4246 55.528 34.3282 55.3548 33.1144ZM57.4546 26.1151C58.3852 25.3542 59.5544 24.9504 60.7537 24.9757C61.3057 24.9472 61.8577 25.0338 62.3749 25.2298C62.8921 25.4259 63.3634 25.7273 63.7593 26.1151C64.5291 26.952 64.9431 28.0582 64.913 29.1977H55.4813C55.8094 27.9912 56.4982 26.9151 57.4546 26.1151ZM77.9627 40.6889C76.4333 39.8713 75.1637 38.6373 74.2994 37.1282C73.4041 35.5327 72.9499 33.7255 72.9838 31.894C72.9561 29.8886 73.4699 27.9132 74.4705 26.1781C75.4712 24.443 76.9211 23.0133 78.6661 22.041C80.4501 21.0367 82.4658 20.5227 84.5103 20.5506C86.4056 20.5127 88.2738 21.0077 89.9042 21.98C91.4409 22.9008 92.6515 24.2832 93.3652 25.9323L89.2464 28.6639C87.9814 26.5919 86.3336 25.5559 84.3028 25.5559C83.2799 25.5453 82.2747 25.8257 81.4035 26.3647C80.5377 26.9036 79.8277 27.6613 79.3441 28.5622C78.8281 29.5058 78.5648 30.568 78.5801 31.6447C78.5528 32.3491 78.6644 33.0519 78.9084 33.7128C79.1525 34.3736 79.5241 34.9794 80.0019 35.4953C80.4711 35.9869 81.0379 36.3737 81.6656 36.6305C82.2933 36.8873 82.9677 37.0083 83.645 36.9858C85.5914 36.9858 87.2528 36.0888 88.6291 34.2949L92.2115 37.3978C91.2646 38.8536 89.959 40.0382 88.4216 40.8364C86.7847 41.6207 84.9907 42.017 83.1775 41.995C81.3643 41.973 79.5803 41.5331 77.9627 40.7092V40.6889ZM103.328 34.5642C103.324 34.2436 103.351 33.9233 103.409 33.6079L104.851 25.6625H110.756L111.535 20.9827H105.691L106.627 15.8096H101.061L100.156 20.9827H96.9425L96.1632 25.6625H99.3358L97.9342 33.6079C97.814 34.2645 97.7447 34.9295 97.7268 35.5968C97.7301 37.6926 98.479 39.2796 99.9734 40.358C101.468 41.4364 103.478 41.9756 106.005 41.9756C106.832 41.9698 107.657 41.9 108.474 41.767L109.299 37.0872C108.945 37.1279 108.363 37.1279 107.568 37.1279C106.475 37.1944 105.382 36.9955 104.381 36.548C104.034 36.3544 103.75 36.0642 103.563 35.7123C103.376 35.3604 103.295 34.9617 103.328 34.5642ZM128.608 21.1909L127.748 26.0741C127.024 25.9622 126.294 25.8925 125.562 25.8656C124.2 25.8051 122.865 26.2566 121.817 27.1321C120.785 28.1084 120.129 29.42 119.965 30.8353L118.109 41.4767H112.543L116.125 20.9823H121.23L120.861 23.0526C121.539 22.3073 122.367 21.7154 123.29 21.3164C124.213 20.9173 125.21 20.7203 126.215 20.7382C127.03 20.7358 127.839 20.8894 128.598 21.1909H128.608ZM148.504 41.4771L152 20.9827L146.47 21.0082L146.055 23.4091C145.374 22.4798 144.456 21.7523 143.398 21.3032C142.182 20.7831 140.869 20.5283 139.548 20.5554C137.586 20.525 135.656 21.0542 133.982 22.0814C132.313 23.1089 130.949 24.5667 130.03 26.3034C129.054 28.1283 128.556 30.1729 128.583 32.2447C128.556 33.9778 128.952 35.691 129.736 37.2348C130.46 38.6612 131.557 39.8622 132.909 40.709C134.275 41.5618 135.855 42.0016 137.463 41.9756C138.651 41.9824 139.828 41.7488 140.924 41.2889C141.968 40.852 142.909 40.1965 143.682 39.3661L143.312 41.4771H148.504ZM144.835 30.7136C144.861 32.3589 144.272 33.9541 143.186 35.1848H143.201C142.705 35.7566 142.091 36.2124 141.401 36.5199C140.711 36.8275 139.963 36.9795 139.209 36.9652C138.55 36.9898 137.893 36.8732 137.283 36.6233C136.672 36.3734 136.121 35.9957 135.667 35.5155C134.734 34.474 134.247 33.1053 134.311 31.7055C134.295 30.6124 134.548 29.5323 135.049 28.5619C135.517 27.6501 136.215 26.8782 137.073 26.3238C137.929 25.7775 138.924 25.4914 139.937 25.4997C140.596 25.4745 141.252 25.5902 141.863 25.8393C142.473 26.0883 143.024 26.465 143.479 26.9443C144.405 27.9736 144.892 29.3271 144.835 30.7136ZM37.4026 19.2023L38.2679 14.1562H26.0734L22.6985 19.2023H37.4026ZM11.9362 41.0394L13.3378 33.2008L20.9277 21.8575L20.4066 24.7518H36.4819L35.6622 29.513H19.5565L18.3219 36.4258H34.6452L33.7799 41.4769H17.4161H11.8603H11.6377L11.9362 41.0394Z" fill="white"></path> <path d="M19.2277 0H6.57791L0 22.3815H6.07191L0.505993 44L23.2757 9.91908H14.6738L19.2277 0Z" fill="url(#paint0_linear_3042_496)"></path> <defs> <linearGradient id="paint0_linear_3042_496" x1="18.4687" y1="-1.52601" x2="-2.45714" y2="42.8978" gradientUnits="userSpaceOnUse"> <stop stop-color="#CBF27D"></stop> <stop offset="1" stop-color="#16CED0"></stop> </linearGradient> </defs> </svg> 