<?xml version="1.0" encoding="UTF-8"?> <svg xmlns="http://www.w3.org/2000/svg" width="150" height="50" viewBox="0 0 150 50" fill="none"> <rect x="1" y="1" width="148" height="48" rx="8" fill="#323232" stroke="#424242"></rect> <path fill-rule="evenodd" clip-rule="evenodd" d="M30.6906 11.1816C30.87 12.8265 30.2235 14.4474 29.2786 15.6389C28.2925 16.8117 26.7151 17.7089 25.1788 17.5933C24.9777 16.0106 25.7561 14.3275 26.6276 13.3007C27.6125 12.1354 29.3229 11.2427 30.6906 11.1816ZM35.72 20.6704C35.5485 20.7736 32.7072 22.4834 32.7383 25.9704C32.7751 30.1812 36.3926 31.5732 36.4359 31.5874C36.4143 31.6855 35.8693 33.5985 34.5125 35.5366C33.3794 37.2458 32.1923 38.9169 30.3068 38.9452C29.41 38.9666 28.8046 38.7068 28.1737 38.436C27.516 38.1537 26.8305 37.8595 25.7583 37.8595C24.6217 37.8595 23.9058 38.1634 23.2154 38.4565C22.6181 38.71 22.04 38.9554 21.225 38.9888C19.4292 39.0553 18.0572 37.1663 16.883 35.4723C14.5358 32.0158 12.7086 25.7316 15.1586 21.4554C16.3457 19.3581 18.5102 18.0075 20.8239 17.9716C21.8427 17.9506 22.8199 18.3464 23.6765 18.6935C24.3316 18.9589 24.9162 19.1957 25.395 19.1957C25.8156 19.1957 26.3838 18.9683 27.046 18.7033C28.0896 18.2857 29.3668 17.7747 30.6679 17.9127C31.5577 17.9389 34.0898 18.267 35.7234 20.6683L35.72 20.6704ZM53.6875 28.224L55.0062 32.1522H57.3739L52.169 17.6177H49.7513L44.5464 32.1522H46.8741L48.1928 28.224H53.6875ZM50.9102 20.0351L48.7623 26.4109H53.1181L50.9701 20.0351H50.9102ZM69.0902 26.8541C69.0902 23.5 67.3319 21.3848 64.6645 21.3848C63.1459 21.3848 61.9371 22.1604 61.3177 23.3791H61.2777V21.556H59.1898V35.6574H61.3477V30.4097H61.3976C61.9971 31.5882 63.1959 32.3335 64.7044 32.3335C67.3419 32.3335 69.0902 30.2082 69.0902 26.8541ZM64.095 30.4903C65.8034 30.4903 66.8723 29.0801 66.8723 26.8541C66.8723 24.6382 65.8034 23.218 64.095 23.218C62.4466 23.218 61.3377 24.6684 61.3377 26.8541C61.3377 29.06 62.4366 30.4903 64.095 30.4903ZM81.1361 26.8541C81.1361 23.5 79.3778 21.3848 76.7104 21.3848C75.1919 21.3848 73.983 22.1604 73.3636 23.3791H73.3237V21.556H71.2357V35.6574H73.3936V30.4097H73.4436C74.043 31.5882 75.2418 32.3335 76.7504 32.3335C79.3878 32.3335 81.1361 30.2082 81.1361 26.8541ZM76.1409 30.4903C77.8493 30.4903 78.9183 29.0801 78.9183 26.8541C78.9183 24.6382 77.8493 23.218 76.1409 23.218C74.4925 23.218 73.3836 24.6684 73.3836 26.8541C73.3836 29.06 74.4826 30.4903 76.1409 30.4903ZM89.743 28.1031H87.5352C87.675 30.732 89.8329 32.394 93.0298 32.394C96.4465 32.394 98.5944 30.6917 98.5944 27.9722C98.5944 25.8469 97.3656 24.6483 94.4085 23.9432L92.82 23.5504C90.9618 23.0871 90.2026 22.4827 90.2026 21.4553C90.2026 20.1661 91.3914 19.2797 93.1297 19.2797C94.868 19.2797 96.0569 20.156 96.1868 21.6064H98.3647C98.2947 19.0984 96.2067 17.376 93.1597 17.376C90.0827 17.376 87.9148 19.0984 87.9148 21.6064C87.9148 23.631 89.1436 24.8799 91.791 25.5246L93.6592 25.9778C95.5274 26.4412 96.3166 27.116 96.3166 28.2441C96.3166 29.5435 95.0079 30.4903 93.1897 30.4903C91.2915 30.4903 89.9029 29.5435 89.743 28.1031ZM101.459 19.048H103.627V21.556H105.625V23.2784H103.627V29.1204C103.627 30.037 104.027 30.45 104.906 30.45C105.126 30.45 105.475 30.4298 105.615 30.3996V32.122C105.375 32.1824 104.896 32.2227 104.416 32.2227C102.288 32.2227 101.459 31.4069 101.459 29.3622V23.2784H99.9307V21.556H101.459V19.048ZM107.161 26.8541C107.161 30.2687 109.139 32.3537 112.146 32.3537C115.154 32.3537 117.132 30.2687 117.132 26.8541C117.132 23.4496 115.144 21.3647 112.146 21.3647C109.149 21.3647 107.161 23.4496 107.161 26.8541ZM112.146 30.5608C113.845 30.5608 114.934 29.2111 114.934 26.8541C114.934 24.5073 113.835 23.1576 112.146 23.1576C110.458 23.1576 109.359 24.5073 109.359 26.8541C109.359 29.2111 110.458 30.5608 112.146 30.5608ZM121.345 21.556H119.287V32.1522H121.445V25.8066C121.445 24.3058 122.304 23.3691 123.693 23.3691C124.113 23.3691 124.492 23.4194 124.662 23.4899V21.4654C124.502 21.4352 124.232 21.3848 123.923 21.3848C122.684 21.3848 121.745 22.1201 121.395 23.359H121.345V21.556ZM133.451 29.0398H135.499C135.199 30.9737 133.381 32.3537 130.973 32.3537C127.886 32.3537 126.018 30.2485 126.018 26.9045C126.018 23.5806 127.916 21.3647 130.884 21.3647C133.801 21.3647 135.619 23.4396 135.619 26.6527V27.398H128.196V27.529C128.196 29.3722 129.295 30.591 131.023 30.591C132.252 30.591 133.161 29.9665 133.451 29.0398ZM128.27 25.5778C128.38 23.9763 129.439 22.818 130.947 22.818C132.456 22.818 133.475 23.9562 133.525 25.5778H128.27Z" fill="#F4F4F4"></path> </svg> 