<?xml version="1.0" encoding="UTF-8"?> <svg xmlns="http://www.w3.org/2000/svg" width="31" height="32" viewBox="0 0 31 32" fill="none"> <g clip-path="url(#clip0_3481_1259)"> <path d="M5.34647 10.8275C5.64054 10.942 5.93552 11.0556 6.22941 11.1705C6.99654 11.4703 7.76715 11.7612 8.54673 12.0284C9.34092 12.301 10.1419 12.5506 10.9667 12.7188C11.6763 12.8634 12.3917 12.943 13.1206 12.8628C14.0299 12.7627 14.8203 12.3863 15.5246 11.8014C16.1662 11.269 16.6972 10.6351 17.1932 9.96869C17.8071 9.1436 18.357 8.27593 18.8934 7.39883C19.4112 6.5522 19.9099 5.69435 20.4094 4.83687C20.4158 4.82447 20.4267 4.81497 20.4398 4.81032C20.3336 5.07102 20.2272 5.33173 20.1205 5.59244C19.799 6.37901 19.48 7.16776 19.1797 7.96108C18.9162 8.65862 18.6634 9.36008 18.4447 10.0728C18.1858 10.9137 17.9746 11.763 17.8913 12.6402C17.7524 14.1072 18.1904 15.3628 19.1838 16.4231C19.7168 16.9926 20.3155 17.4838 20.943 17.9407C21.8761 18.6194 22.853 19.2306 23.8379 19.8292C24.1734 20.0329 24.5085 20.2373 24.8368 20.4601C24.7539 20.4293 24.6708 20.3999 24.5888 20.3673C23.5977 19.9737 22.6028 19.5898 21.5933 19.2456C20.617 18.9123 19.6319 18.6098 18.6056 18.4645C17.875 18.3612 17.1457 18.3531 16.4221 18.5452C15.6815 18.7414 15.0466 19.1323 14.4744 19.6407C13.8584 20.1903 13.3406 20.828 12.8564 21.4951C12.1632 22.4508 11.5404 23.4532 10.9362 24.4689C10.5453 25.1272 10.1596 25.788 9.77114 26.4479C9.76489 26.4607 9.75401 26.4705 9.74079 26.4754C9.80301 26.3216 9.86376 26.1671 9.92743 26.014C10.308 25.0946 10.681 24.1715 11.0316 23.2374C11.4542 22.1114 11.8546 20.9777 12.1069 19.801C12.2711 19.0378 12.3622 18.2701 12.2712 17.4904C12.1574 16.5156 11.7272 15.6955 11.0915 14.9753C10.5905 14.4055 10.012 13.9247 9.40723 13.4743C8.59461 12.8689 7.74414 12.3209 6.8816 11.7919C6.37792 11.4827 5.87223 11.1776 5.368 10.8704C5.35581 10.8622 5.34411 10.8534 5.33294 10.8439L5.34647 10.8275Z" fill="#BCF085"></path> </g> <defs> <clipPath id="clip0_3481_1259"> <rect width="21.7436" height="24.1596" fill="white" transform="translate(10.6832) rotate(26.2441)"></rect> </clipPath> </defs> </svg> 