<?xml version="1.0" encoding="UTF-8"?> <svg xmlns="http://www.w3.org/2000/svg" width="55" height="56" viewBox="0 0 55 56" fill="none"> <g clip-path="url(#clip0_3481_1253)"> <path d="M10.2883 18.3006C10.8033 18.5352 11.32 18.7683 11.8346 19.0036C13.178 19.6174 14.5282 20.2161 15.896 20.7744C17.2895 21.3438 18.6966 21.8739 20.1519 22.2644C21.4042 22.6003 22.6713 22.8233 23.9737 22.7684C25.5987 22.6999 27.0319 22.1345 28.3268 21.1946C29.5064 20.3392 30.4964 19.2933 31.4267 18.1866C32.5778 16.8163 33.6183 15.3641 34.6354 13.8938C35.6172 12.4746 36.5659 11.0336 37.516 9.59326C37.5283 9.57233 37.5483 9.557 37.5718 9.5504C37.3644 9.99366 37.1563 10.4369 36.9478 10.8801C36.3195 12.2173 35.6956 13.5586 35.1045 14.9101C34.5858 16.0985 34.0859 17.295 33.6456 18.515C33.1249 19.9547 32.6884 21.4144 32.4773 22.9379C32.1253 25.4858 32.8147 27.7318 34.5062 29.7014C35.4135 30.7592 36.4436 31.6879 37.5272 32.56C39.1389 33.8556 40.8331 35.0383 42.5425 36.1999C43.1248 36.5952 43.7063 36.9917 44.2746 37.4195C44.1292 37.3561 43.9835 37.2949 43.8399 37.2283C42.1049 36.4243 40.3623 35.6367 38.5908 34.917C36.8777 34.2201 35.1468 33.576 33.3312 33.2018C32.0389 32.9358 30.7419 32.8362 29.4408 33.0873C28.1092 33.3436 26.9516 33.9523 25.8972 34.7741C24.7619 35.6625 23.795 36.7165 22.8858 37.8259C21.5841 39.4152 20.4044 41.0945 19.2566 42.799C18.5141 43.9039 17.7806 45.0138 17.0422 46.1217C17.0302 46.1433 17.0101 46.1592 16.9863 46.1662C17.108 45.9046 17.2271 45.6416 17.3514 45.3815C18.0943 43.8191 18.8238 42.2493 19.5145 40.6576C20.3469 38.7389 21.1406 36.8042 21.6737 34.7769C22.0204 33.4623 22.2375 32.131 22.1313 30.7576C21.9987 29.0403 21.2919 27.5566 20.2125 26.2232C19.362 25.1686 18.3672 24.2605 17.3234 23.4024C15.921 22.2491 14.4472 21.1917 12.9505 20.166C12.0765 19.5666 11.1986 18.974 10.3235 18.3781C10.3024 18.3624 10.2822 18.3456 10.263 18.3276L10.2883 18.3006Z" fill="#1DD0CC"></path> </g> <defs> <clipPath id="clip0_3481_1253"> <rect width="39" height="42" fill="white" transform="translate(20.5579) rotate(29.306)"></rect> </clipPath> </defs> </svg> 