<?xml version="1.0" encoding="UTF-8"?> <svg xmlns="http://www.w3.org/2000/svg" width="33" height="35" viewBox="0 0 33 35" fill="none"> <g clip-path="url(#clip0_3481_1255)"> <path d="M1.25778 18.3625C1.68566 18.2925 2.11397 18.2208 2.54189 18.1513C3.6588 17.9698 4.7736 17.7758 5.88242 17.5485C7.01228 17.3174 8.13411 17.0554 9.22715 16.684C10.1676 16.3644 11.0694 15.9665 11.8753 15.3767C12.8809 14.6407 13.5525 13.6701 13.9766 12.5199C14.3633 11.4727 14.548 10.3849 14.6689 9.28393C14.8181 7.92096 14.8619 6.55297 14.8831 5.18344C14.9036 3.8615 14.8937 2.53972 14.885 1.21786C14.8839 1.19929 14.8901 1.181 14.9023 1.16676C14.9591 1.5374 15.0155 1.90824 15.0715 2.2793C15.2411 3.39844 15.4153 4.51832 15.6148 5.6307C15.7908 6.6084 15.9822 7.58324 16.2217 8.54767C16.5035 9.68621 16.8474 10.8016 17.3622 11.8617C18.2235 13.634 19.6194 14.7704 21.5356 15.3039C22.564 15.5908 23.6156 15.7433 24.6772 15.8369C26.2553 15.9752 27.838 16.0065 29.4213 16.0178C29.9605 16.0215 30.4998 16.0262 31.0438 16.0565C30.9243 16.078 30.8054 16.1012 30.6856 16.1199C29.2383 16.3472 27.7932 16.5881 26.3586 16.8846C24.9709 17.1707 23.5942 17.498 22.2788 18.0333C21.3426 18.4145 20.4744 18.9037 19.7529 19.6179C19.0141 20.3484 18.5364 21.2292 18.2151 22.2017C17.8707 23.2511 17.7041 24.3341 17.5979 25.4279C17.4461 26.9945 17.4104 28.5663 17.4058 30.1407C17.4038 31.1605 17.4096 32.1798 17.4115 33.1999C17.413 33.2187 17.407 33.2374 17.3948 33.252C17.3608 33.0336 17.3246 32.8154 17.2929 32.5968C17.1003 31.2855 16.896 29.975 16.6577 28.6673C16.3703 27.0909 16.0513 25.5209 15.5271 24.0029C15.1877 23.0181 14.7587 22.0779 14.106 21.2487C13.2899 20.2117 12.2077 19.5681 10.9524 19.179C9.96147 18.8698 8.94118 18.7154 7.91099 18.6137C6.52663 18.4768 5.13765 18.4315 3.74765 18.4161C2.93577 18.4067 2.12435 18.4034 1.31324 18.3968C1.29313 18.3958 1.27309 18.3937 1.25324 18.3905L1.25778 18.3625Z" fill="#1DD0CC"></path> </g> <defs> <clipPath id="clip0_3481_1255"> <rect width="29.8791" height="32.1775" fill="white" transform="translate(0 2.33447) rotate(-4.48079)"></rect> </clipPath> </defs> </svg> 