<?xml version="1.0" encoding="UTF-8"?> <svg xmlns="http://www.w3.org/2000/svg" width="54" height="56" viewBox="0 0 54 56" fill="none"> <g clip-path="url(#clip0_3501_1038)"> <path d="M7.12019 21.0725C7.70252 21.2159 8.28633 21.3573 8.86842 21.5013C10.3878 21.8771 11.9114 22.2358 13.4454 22.5489C15.0082 22.8686 16.5776 23.1446 18.1698 23.2658C19.5398 23.37 20.9031 23.3537 22.2487 23.041C23.9275 22.651 25.3092 21.781 26.4733 20.5482C27.534 19.426 28.3599 18.1426 29.1116 16.8076C30.0416 15.1548 30.8404 13.4383 31.6112 11.7077C32.3553 10.0371 33.0606 8.35031 33.7675 6.664C33.7762 6.6398 33.7941 6.6199 33.8173 6.60841C33.6882 7.11072 33.5585 7.6131 33.4282 8.11556C33.0362 9.63138 32.6496 11.1506 32.2991 12.674C31.9919 14.0134 31.706 15.3575 31.4869 16.7144C31.2269 18.3158 31.0586 19.9216 31.1377 21.5496C31.2708 24.2721 32.4294 26.4758 34.5772 28.1952C35.7296 29.1188 36.9846 29.8839 38.2841 30.5797C40.2166 31.6128 42.2129 32.5121 44.221 33.3865C44.9049 33.684 45.5884 33.9829 46.264 34.317C46.1002 34.2794 45.9365 34.2443 45.7739 34.2031C43.8093 33.7061 41.84 33.2277 39.854 32.8256C37.9333 32.436 36.0043 32.1046 34.0402 32.0711C32.6422 32.0475 31.272 32.1982 29.9662 32.7149C28.6297 33.243 27.5436 34.104 26.6067 35.1666C25.5986 36.3146 24.7985 37.6018 24.0692 38.9355C23.0253 40.8459 22.1262 42.8261 21.2652 44.8264C20.7087 46.1227 20.1625 47.4224 19.6109 48.7211C19.6026 48.7459 19.5848 48.7664 19.5613 48.7784C19.6367 48.4821 19.7092 48.1848 19.7876 47.8895C20.2548 46.1168 20.7067 44.3388 21.1138 42.5458C21.6043 40.3843 22.0513 38.2138 22.2089 35.998C22.3121 34.5609 22.277 33.1319 21.8971 31.7224C21.4221 29.96 20.395 28.5535 19.0094 27.3767C17.9168 26.4452 16.7027 25.6946 15.4474 25.0058C13.7607 24.0797 12.0184 23.2676 10.2585 22.493C9.23075 22.0402 8.20032 21.5953 7.17209 21.1463C7.14704 21.1341 7.12271 21.1206 7.09921 21.1057L7.12019 21.0725Z" fill="#1DD0CC"></path> </g> <defs> <clipPath id="clip0_3501_1038"> <rect width="41.3292" height="44.5084" fill="white" transform="translate(14.2256) rotate(18.6395)"></rect> </clipPath> </defs> </svg> 