<?xml version="1.0" encoding="UTF-8"?> <svg xmlns="http://www.w3.org/2000/svg" width="48" height="48" viewBox="0 0 48 48" fill="none"> <path fill-rule="evenodd" clip-rule="evenodd" d="M48 24C48 37.2548 37.2548 48 24 48C10.7452 48 0 37.2548 0 24C0 10.7452 10.7452 0 24 0C37.2548 0 48 10.7452 48 24ZM34.6137 16.5309C35.5082 16.383 36.4267 16.1525 37.2593 15.7775L37.2627 15.7706C37.2873 15.7595 37.3063 15.7498 37.3208 15.7424C37.3694 15.7177 37.3694 15.7177 37.3694 15.7706V15.7947C37.3694 15.86 37.3694 16.0252 37.2317 16.211C36.6194 17.0332 35.9589 17.7694 35.14 18.3853C35.117 18.4024 35.0912 18.4196 35.0643 18.4374C34.9507 18.513 34.82 18.5998 34.82 18.7362C34.82 23.0573 33.7157 27.375 30.5643 30.5057C26.5529 34.4931 20.5323 35.5768 15.1894 34.1009C14.1573 33.8153 13.1664 33.4128 12.2168 32.9105C11.9038 32.7385 11.5942 32.5596 11.2914 32.3601C11.2157 32.2981 11.1572 32.2431 11.2226 32.2018C11.288 32.1708 11.3396 32.1674 11.577 32.2018C13.0701 32.3497 14.6114 32.1295 16.0254 31.6341C16.0674 31.6194 16.112 31.604 16.1588 31.5877C16.9797 31.3027 18.4975 30.7757 18.9531 30.0825C18.9583 30.0739 18.9643 30.0696 18.9703 30.0653C18.9763 30.061 18.9823 30.0567 18.9875 30.0481C18.8771 30.0229 18.7667 30.0119 18.657 30.001C18.5717 29.9925 18.4869 29.984 18.4026 29.969C16.9508 29.5527 15.0104 28.8268 14.1125 26.3773C14.054 26.2328 14.1125 26.1605 14.2604 26.188C15.4542 26.2844 15.8843 26.219 16.3006 26.1261C16.0667 26.0883 15.8258 26.0091 15.6091 25.9162C13.7788 25.2213 12.4439 23.4392 12.1996 21.5091C12.1721 21.2855 12.1549 21.0963 12.1653 20.8899C12.1756 20.7454 12.2375 20.7006 12.3648 20.7798C13.304 21.2683 14.3602 21.3818 14.4462 21.3646C14.2122 21.1789 13.9921 20.9793 13.7822 20.7798C12.1962 19.2798 11.5804 16.2213 12.8499 14.3188C12.9531 14.1639 13.0184 14.1639 13.1457 14.3084C16.046 17.6146 19.6205 19.1594 23.9313 19.7993C24.0483 19.8165 24.0586 19.7993 24.0414 19.672C23.9279 18.9116 23.9141 18.1685 24.0964 17.4185C24.2857 16.641 24.6607 15.9082 25.163 15.2855C25.6515 14.6834 26.2639 14.1846 26.9485 13.8268C27.6332 13.469 28.39 13.2522 29.1607 13.2006C29.9554 13.149 30.757 13.2763 31.4932 13.5756C32.054 13.8061 32.5494 14.1123 33.0138 14.508C33.1074 14.5882 33.1913 14.6814 33.2811 14.7812L33.2891 14.7901C33.3476 14.8486 33.413 14.8727 33.5059 14.8486C34.6068 14.5733 35.6423 14.1846 36.6434 13.6479C36.6882 13.6273 36.726 13.6135 36.7845 13.6376C36.8326 13.672 36.8154 13.7305 36.7914 13.7752C36.6125 14.36 36.296 14.9036 35.9141 15.3784L35.9094 15.3843C35.6552 15.6977 35.0376 16.4591 34.6137 16.5309Z" fill="white"></path> </svg> 