<?xml version="1.0" encoding="UTF-8"?> <svg xmlns="http://www.w3.org/2000/svg" width="150" height="50" viewBox="0 0 150 50" fill="none"> <rect x="1" y="1" width="148" height="48" rx="8" fill="#323232" stroke="#424242"></rect> <path fill-rule="evenodd" clip-rule="evenodd" d="M15.7794 14.2329L28.6271 21.2998L25.5801 24.4088L15.3311 14.0908C15.4864 14.1114 15.6422 14.1573 15.7794 14.2329ZM14.5776 14.2185L25.143 24.8549L14.6283 35.5845C14.3214 35.3879 14.1569 34.9622 14.1542 34.4124L14.0589 15.3689C14.0559 14.7668 14.2732 14.3994 14.5776 14.2185ZM47.0658 23.9909H53.724C53.7287 24.01 53.8444 24.4913 53.8444 25.3116C53.8444 29.2803 50.9999 31.9642 47.1142 31.9642C42.696 31.9642 39.6951 28.3427 39.6951 24.6287C39.6951 20.8385 42.8854 17.3293 47.0091 17.3295C50.2476 17.3295 52.0232 19.3224 52.0232 19.3224L50.6397 20.7668C50.6397 20.7668 49.3198 19.327 47.0797 19.327C44.1765 19.327 41.8609 21.649 41.8609 24.6642C41.8609 27.7592 44.29 29.9676 47.0737 29.9676C49.2495 29.9676 51.5545 28.7763 51.7879 25.983H47.0658V23.9909ZM54.6938 27.2135C54.6938 24.7017 56.6517 22.5483 59.3839 22.5483C61.6296 22.5483 64.065 24.1528 64.065 27.2682C64.065 29.9862 61.9714 31.9556 59.4158 31.9556C56.5927 31.9556 54.6938 29.7621 54.6938 27.2135ZM69.6948 22.5483C66.9627 22.5483 65.0046 24.7017 65.0046 27.2135C65.0046 29.7621 66.9037 31.9556 69.7269 31.9556C72.2823 31.9556 74.376 29.9862 74.376 27.2682C74.376 24.1528 71.9408 22.5483 69.6948 22.5483ZM62.0277 27.2557C62.0277 25.491 60.7545 24.3958 59.4109 24.3958V24.3959C57.9013 24.3959 56.7411 25.6127 56.7411 27.242C56.7411 28.9071 57.9158 30.1093 59.4048 30.1093C60.7598 30.1093 62.0277 28.9829 62.0277 27.2557ZM69.7219 24.3958C71.0654 24.3958 72.3386 25.491 72.3386 27.2557C72.3386 28.9829 71.0708 30.1093 69.7156 30.1093C68.2268 30.1093 67.0522 28.9071 67.0522 27.242C67.0522 25.6127 68.2122 24.3959 69.7219 24.3959V24.3958ZM75.3153 27.2531C75.3153 24.7677 77.2867 22.5533 79.7942 22.5533V22.5535C80.886 22.5535 81.7084 22.9793 82.3098 23.6328V22.8361H84.2658V31.2881C84.2658 34.6089 82.3655 36.192 79.872 36.192C77.5926 36.192 76.3122 34.7789 75.6759 33.4222L77.469 32.6664C77.7174 33.2726 78.4322 34.3414 79.8572 34.3414C81.3324 34.3414 82.3096 33.3691 82.3096 31.7463V30.8188C81.7877 31.4296 81.0808 31.9618 79.7509 31.9618C77.6005 31.9618 75.3153 30.0844 75.3153 27.2531ZM79.9757 24.3971C81.2053 24.3971 82.4678 25.4556 82.4678 27.2631C82.4678 29.1004 81.2079 30.1129 79.9486 30.1129C78.6118 30.1129 77.3677 29.0185 77.3677 27.2806C77.3677 25.4748 78.6598 24.3971 79.9757 24.3971ZM89.0225 27.2395C89.0225 24.4395 91.0085 22.542 93.374 22.542L93.3742 22.5423C95.2398 22.5423 96.6494 23.7966 97.2537 25.2985L97.5786 26.0654L91.3229 28.6824C91.6966 29.3837 92.2997 30.1079 93.6111 30.108C94.7786 30.108 95.4784 29.468 95.8969 28.8131L97.5096 29.895C96.7865 30.8706 95.5751 31.9592 93.6012 31.9592C91.2362 31.9592 89.0225 30.2022 89.0225 27.2395ZM93.4557 24.3511C94.308 24.3511 94.9214 24.8079 95.1819 25.3558L91.0043 27.1162C90.8243 25.7533 92.105 24.3511 93.4555 24.3511H93.4557ZM87.8892 31.68H85.8344V17.8159H87.8892V31.68ZM113.384 31.68H115.439V17.8159H113.384V31.68ZM104.542 31.68H102.488V26.649V17.8159V17.8158H107.458C109.867 17.8158 111.839 19.8032 111.839 22.2324C111.839 24.6615 109.867 26.649 107.458 26.649H104.542V31.68ZM104.542 24.5773V19.8875H107.458C108.733 19.8875 109.784 20.9467 109.784 22.2324C109.784 23.5181 108.733 24.5773 107.458 24.5773H104.542ZM130.61 36.192L136.559 22.5423H134.315L131.623 28.7191L128.93 22.5423H126.686L130.501 31.2937L128.366 36.192H130.61ZM123.849 31.68H125.903V26.6936C126.225 21.5509 119.758 20.3414 117.311 24.0487L118.965 25.1673C120.161 23.0584 123.575 23.5437 123.8 25.8038C122.773 25.5298 121.665 25.3311 120.652 25.4344C119.071 25.5957 117.718 26.6079 117.503 28.2657C117.387 29.1616 117.585 30.2659 118.205 30.9388C119.172 31.9874 120.759 32.1287 122.063 31.7704C122.797 31.5687 123.375 31.1289 123.849 30.5609V31.68ZM121.575 29.9633C122.699 29.6545 123.586 28.8252 123.849 27.6723C123.274 27.4845 122.745 27.333 122.138 27.2593C118.607 26.7241 119.199 30.6163 121.575 29.9633ZM29.1984 28.0514L26.0202 24.8518L29.1952 21.6122L33.5675 24.0169C34.6446 24.6091 34.0937 25.3499 33.5675 25.6402L29.1984 28.0514ZM15.7794 35.4559C15.6824 35.5106 15.5888 35.5535 15.4993 35.5874L25.5831 25.2979L28.6297 28.3649L15.7794 35.4559Z" fill="#BCF085"></path> </svg> 