<?xml version="1.0" encoding="UTF-8"?> <svg xmlns="http://www.w3.org/2000/svg" width="39" height="41" viewBox="0 0 39 41" fill="none"> <g clip-path="url(#clip0_3501_1042)"> <path d="M4.96055 24.8738C5.36457 24.7086 5.76861 24.5416 6.17279 24.3769C7.2277 23.9469 8.27763 23.5047 9.31396 23.0301C10.37 22.547 11.4111 22.0345 12.3984 21.4176C13.2479 20.8867 14.0412 20.2852 14.6958 19.5106C15.5124 18.5441 15.9466 17.4137 16.0958 16.1563C16.2322 15.0113 16.1609 13.8698 16.0238 12.729C15.8535 11.3169 15.5786 9.9229 15.2812 8.53235C14.9941 7.19012 14.6772 5.85475 14.3614 4.51904C14.3561 4.50048 14.3579 4.48061 14.3666 4.46351C14.5084 4.82605 14.65 5.18888 14.7913 5.55201C15.218 6.64708 15.6494 7.74189 16.1038 8.82355C16.5039 9.77411 16.9185 10.7183 17.3779 11.6415C17.9193 12.7314 18.5164 13.7843 19.2683 14.7434C20.5263 16.347 22.1615 17.189 24.1676 17.3062C25.2445 17.3697 26.3129 17.2921 27.3774 17.1527C28.9596 16.9446 30.5215 16.6272 32.0793 16.2894C32.6098 16.1742 33.1406 16.06 33.6821 15.9707C33.5696 16.0188 33.4582 16.0685 33.3449 16.1139C31.9761 16.6631 30.6126 17.2256 29.2724 17.842C27.9758 18.4377 26.6997 19.0725 25.532 19.9043C24.701 20.4965 23.9619 21.183 23.4192 22.0649C22.8633 22.9671 22.5987 23.9638 22.5092 25.0187C22.4148 26.1566 22.5029 27.2893 22.6527 28.4195C22.8677 30.0383 23.198 31.6367 23.5593 33.2309C23.7943 34.2634 24.0369 35.2935 24.2758 36.3253C24.2817 36.344 24.2802 36.3643 24.2716 36.3818C24.1875 36.1682 24.1012 35.9554 24.0192 35.7412C23.5253 34.4567 23.0201 33.1757 22.4821 31.9049C21.8334 30.3732 21.1552 28.8548 20.2875 27.4343C19.7253 26.5126 19.0854 25.6558 18.2515 24.9606C17.2089 24.0913 15.9963 23.6786 14.6728 23.5618C13.6277 23.4674 12.5896 23.5363 11.5541 23.6606C10.1625 23.8274 8.78761 24.0879 7.41869 24.3788C6.61904 24.5485 5.82127 24.7241 5.02301 24.8963C5.00302 24.8997 4.98285 24.902 4.96259 24.9031L4.96055 24.8738Z" fill="#BCF085"></path> </g> <defs> <clipPath id="clip0_3501_1042"> <rect width="30.0737" height="33.4152" fill="white" transform="translate(0 8.93213) rotate(-17.278)"></rect> </clipPath> </defs> </svg> 