<?xml version="1.0" encoding="UTF-8"?> <svg xmlns="http://www.w3.org/2000/svg" width="33" height="35" viewBox="0 0 33 35" fill="none"> <g clip-path="url(#clip0_3481_1257)"> <path d="M3.35993 20.4935C3.72856 20.3733 4.09733 20.2516 4.46607 20.1319C5.42849 19.8195 6.38728 19.4958 7.33613 19.1427C8.30304 18.7832 9.25851 18.3967 10.1732 17.9143C10.9602 17.4991 11.702 17.0177 12.3321 16.374C13.1183 15.5708 13.5762 14.5976 13.79 13.4934C13.9852 12.4879 13.996 11.472 13.9486 10.4525C13.8894 9.19052 13.7363 7.93781 13.563 6.68666C13.3958 5.47899 13.2017 4.27546 13.0087 3.0717C13.0051 3.05491 13.008 3.03742 13.0168 3.02284C13.119 3.35321 13.2208 3.68382 13.3224 4.01467C13.6294 5.01245 13.9405 6.01031 14.2729 6.99801C14.5656 7.86604 14.8717 8.72942 15.2187 9.57699C15.6276 10.5777 16.0882 11.5491 16.6921 12.4476C17.7025 13.9498 19.0964 14.8018 20.866 15.0358C21.8159 15.1619 22.7673 15.1625 23.7194 15.1081C25.1346 15.0264 26.5388 14.8465 27.9408 14.6484C28.4182 14.5807 28.8958 14.514 29.3813 14.47C29.2785 14.5054 29.1766 14.5421 29.0733 14.575C27.8251 14.9727 26.5807 15.3826 25.3534 15.8417C24.1662 16.2852 22.9945 16.7648 21.9061 17.4259C21.1315 17.8966 20.4322 18.4568 19.8942 19.2028C19.3432 19.966 19.0442 20.8317 18.8964 21.7605C18.739 22.7624 18.7435 23.7715 18.8029 24.7825C18.8883 26.2304 19.0772 27.6679 19.2938 29.1036C19.4351 30.0335 19.5831 30.9618 19.7278 31.8913C19.7318 31.9083 19.7291 31.9261 19.7204 31.9411C19.6597 31.7465 19.5971 31.5523 19.5384 31.3572C19.1842 30.1873 18.8197 29.0197 18.4256 27.8591C17.9503 26.46 17.4481 25.0709 16.7715 23.7562C16.3333 22.9032 15.822 22.1027 15.1284 21.4328C14.2612 20.595 13.2138 20.1508 12.0489 19.9614C11.1292 19.81 10.2051 19.8036 9.27969 19.8466C8.03607 19.904 6.80122 20.0456 5.56965 20.2145C4.85026 20.3129 4.13213 20.4167 3.4138 20.5175C3.39588 20.5192 3.37786 20.5199 3.35984 20.5196L3.35993 20.4935Z" fill="#BCF085"></path> </g> <defs> <clipPath id="clip0_3481_1257"> <rect width="26.7129" height="29.681" fill="white" transform="translate(0 6.04932) rotate(-13.0889)"></rect> </clipPath> </defs> </svg> 