<?xml version="1.0" encoding="UTF-8"?> <svg xmlns="http://www.w3.org/2000/svg" width="48" height="48" viewBox="0 0 48 48" fill="none"> <path fill-rule="evenodd" clip-rule="evenodd" d="M48 24C48 37.2548 37.2548 48 24 48C10.7452 48 0 37.2548 0 24C0 10.7452 10.7452 0 24 0C37.2548 0 48 10.7452 48 24ZM35.7216 21.2722C35.9694 21.2722 36.217 21.2584 36.4613 21.2344L36.4647 21.2378V16.239C32.5943 15.9569 29.4842 12.9431 29.0783 9.08301H24.7744L24.7297 30.0555C24.7297 32.6289 22.4556 34.6552 19.8822 34.6552C17.3088 34.6552 15.2239 32.5704 15.2239 29.997C15.2239 27.4236 17.3088 25.3387 19.8822 25.3387C20.0407 25.3387 20.1945 25.3597 20.3475 25.3805C20.3805 25.385 20.4134 25.3895 20.4464 25.3938V20.8972C20.3945 20.8943 20.3424 20.8909 20.2901 20.8875C20.155 20.8786 20.0186 20.8697 19.8822 20.8697C14.842 20.8697 10.7549 24.9569 10.7549 29.997C10.7549 35.0371 14.842 39.1243 19.8822 39.1243C24.9223 39.1243 29.0095 35.0371 29.0095 29.997V17.6461C30.4923 19.9098 33.0175 21.2722 35.7216 21.2722Z" fill="#BCF085"></path> </svg> 