<?xml version="1.0" encoding="UTF-8"?> <svg xmlns="http://www.w3.org/2000/svg" width="55" height="60" viewBox="0 0 55 60" fill="none"> <g clip-path="url(#clip0_3501_960)"> <path d="M0.00308461 29.9784C0.798365 29.9106 1.59467 29.8397 2.38995 29.7729C4.46572 29.5983 6.53942 29.4 8.60694 29.139C10.7136 28.874 12.81 28.5503 14.8693 28.0192C16.6411 27.562 18.3532 26.9538 19.917 25.9747C21.8681 24.7531 23.2403 23.0466 24.1839 20.9702C25.0441 19.0798 25.5396 17.0846 25.9197 15.0555C26.3895 12.5435 26.6666 10.0068 26.9025 7.46404C27.1302 5.00959 27.3022 2.55103 27.4763 0.0924651C27.477 0.0577845 27.491 0.0246947 27.5154 0C27.5663 0.69726 27.6164 1.39486 27.6658 2.09281C27.8162 4.19794 27.9749 6.30514 28.1809 8.40205C28.3633 10.2452 28.5744 12.0853 28.8753 13.913C29.2286 16.0705 29.6994 18.1942 30.4916 20.2397C31.8174 23.6599 34.2156 25.9757 37.6553 27.2466C39.5013 27.9298 41.4091 28.3664 43.3438 28.6952C46.22 29.1822 49.1199 29.4709 52.0239 29.7226C53.0128 29.8079 54.0018 29.8952 54.9959 30.0308C54.7734 30.0534 54.5519 30.0791 54.3294 30.0966C51.6407 30.3082 48.954 30.5455 46.2787 30.8877C43.6909 31.2175 41.1176 31.6253 38.6267 32.4288C36.8538 33.001 35.1901 33.7839 33.7633 35.0065C32.3026 36.2568 31.2992 37.8247 30.5699 39.5856C29.7869 41.4863 29.3254 43.4753 28.9731 45.4931C28.4694 48.3832 28.1778 51.3 27.943 54.226C27.7926 56.1216 27.6566 58.0171 27.5134 59.9137C27.5135 59.9489 27.4998 59.9828 27.4753 60.0082C27.4444 59.5973 27.4093 59.1863 27.3826 58.7753C27.2177 56.3096 27.0313 53.8438 26.782 51.3781C26.4812 48.4058 26.1216 45.4407 25.3779 42.5425C24.8968 40.6623 24.2447 38.8521 23.1661 37.2154C21.8177 35.1688 19.9242 33.8147 17.6764 32.9086C15.9025 32.1894 14.0523 31.7538 12.1764 31.4147C9.65564 30.9586 7.11322 30.6719 4.56461 30.4408C3.07604 30.3051 1.58746 30.1808 0.0999193 30.0503C0.0631571 30.0456 0.0266985 30.0387 -0.00927734 30.0298L0.00308461 29.9784Z" fill="#1DD0CC"></path> </g> <defs> <clipPath id="clip0_3501_960"> <rect width="55" height="60" fill="white"></rect> </clipPath> </defs> </svg> 